<svg width="120" height="120" viewBox="0 0 120 120" fill="none" xmlns="http://www.w3.org/2000/svg">
<path d="M120 60C120 93.1371 93.1371 120 60 120C26.8629 120 0 93.1371 0 60C0 26.8629 26.8629 0 60 0C93.1371 0 120 26.8629 120 60ZM12 60C12 86.5097 33.4903 108 60 108C86.5097 108 108 86.5097 108 60C108 33.4903 86.5097 12 60 12C33.4903 12 12 33.4903 12 60Z" fill="#DDDDDD" fill-opacity="0.2"/>
<path d="M60 0C67.8793 9.39599e-08 75.6815 1.55195 82.961 4.56723C90.2405 7.58251 96.8549 12.0021 102.426 17.5736C107.998 23.1451 112.417 29.7595 115.433 37.039C118.448 44.3185 120 52.1207 120 60L108 60C108 53.6966 106.758 47.4548 104.346 41.6312C101.934 35.8076 98.3983 30.5161 93.9411 26.0589C89.4839 21.6017 84.1924 18.066 78.3688 15.6538C72.5452 13.2416 66.3035 12 60 12V0Z" fill="#2193ED"/>
<path d="M54.8359 67.1953C52.1693 67.1953 50.8359 65.3229 50.8359 61.5781C50.8359 59.6354 51.1953 58.1562 51.9141 57.1406C52.638 56.1198 53.6849 55.6094 55.0547 55.6094C57.6589 55.6094 58.9609 57.513 58.9609 61.3203C58.9609 63.2161 58.6042 64.6693 57.8906 65.6797C57.1823 66.6901 56.1641 67.1953 54.8359 67.1953ZM54.9453 57.4922C53.8776 57.4922 53.3438 58.8333 53.3438 61.5156C53.3438 64.0417 53.8672 65.3047 54.9141 65.3047C55.9349 65.3047 56.4453 64.0026 56.4453 61.3984C56.4453 58.7943 55.9453 57.4922 54.9453 57.4922ZM66 55.5469V67H63.5391V58.3281C63.4036 58.4479 63.2422 58.5625 63.0547 58.6719C62.8724 58.776 62.6771 58.8724 62.4688 58.9609C62.2604 59.0443 62.0443 59.1172 61.8203 59.1797C61.5964 59.237 61.375 59.2786 61.1562 59.3047V57.2266C61.7969 57.0391 62.401 56.7995 62.9688 56.5078C63.5365 56.2161 64.0495 55.8958 64.5078 55.5469H66Z" fill="#2193ED"/>
</svg>
