<svg width="120" height="120" viewBox="0 0 120 120" fill="none" xmlns="http://www.w3.org/2000/svg">
<path d="M120 60C120 93.1371 93.1371 120 60 120C26.8629 120 0 93.1371 0 60C0 26.8629 26.8629 0 60 0C93.1371 0 120 26.8629 120 60ZM12 60C12 86.5097 33.4903 108 60 108C86.5097 108 108 86.5097 108 60C108 33.4903 86.5097 12 60 12C33.4903 12 12 33.4903 12 60Z" fill="#DDDDDD" fill-opacity="0.2"/>
<path d="M60 0C71.8669 1.41511e-07 83.4673 3.51894 93.3342 10.1118C103.201 16.7047 110.892 26.0754 115.433 37.039C119.974 48.0026 121.162 60.0666 118.847 71.7054C116.532 83.3443 110.818 94.0353 102.426 102.426C94.0353 110.818 83.3443 116.532 71.7054 118.847C60.0666 121.162 48.0026 119.974 37.039 115.433C26.0754 110.892 16.7047 103.201 10.1118 93.3342C3.51894 83.4673 -2.83022e-07 71.8669 0 60H12C12 69.4935 14.8152 78.7738 20.0895 86.6674C25.3638 94.5609 32.8603 100.713 41.6312 104.346C50.402 107.979 60.0532 108.93 69.3643 107.078C78.6754 105.226 87.2282 100.654 93.9411 93.9411C100.654 87.2282 105.226 78.6754 107.078 69.3643C108.93 60.0532 107.979 50.4021 104.346 41.6312C100.713 32.8603 94.5609 25.3638 86.6674 20.0895C78.7738 14.8152 69.4935 12 60 12V0Z" fill="#2193ED"/>
<path d="M54.8359 67.1953C52.1693 67.1953 50.8359 65.3229 50.8359 61.5781C50.8359 59.6354 51.1953 58.1562 51.9141 57.1406C52.638 56.1198 53.6849 55.6094 55.0547 55.6094C57.6589 55.6094 58.9609 57.513 58.9609 61.3203C58.9609 63.2161 58.6042 64.6693 57.8906 65.6797C57.1823 66.6901 56.1641 67.1953 54.8359 67.1953ZM54.9453 57.4922C53.8776 57.4922 53.3438 58.8333 53.3438 61.5156C53.3438 64.0417 53.8672 65.3047 54.9141 65.3047C55.9349 65.3047 56.4453 64.0026 56.4453 61.3984C56.4453 58.7943 55.9453 57.4922 54.9453 57.4922ZM60.4141 66.6328V64.4844C61.1641 65.0312 62.0391 65.3047 63.0391 65.3047C63.6693 65.3047 64.1589 65.1693 64.5078 64.8984C64.862 64.6276 65.0391 64.25 65.0391 63.7656C65.0391 63.2656 64.8203 62.8802 64.3828 62.6094C63.9505 62.3385 63.3542 62.2031 62.5938 62.2031H61.5547V60.3125H62.5156C63.974 60.3125 64.7031 59.8281 64.7031 58.8594C64.7031 57.9479 64.1432 57.4922 63.0234 57.4922C62.2734 57.4922 61.5443 57.7344 60.8359 58.2188V56.2031C61.6224 55.8073 62.5391 55.6094 63.5859 55.6094C64.7318 55.6094 65.6224 55.8672 66.2578 56.3828C66.8984 56.8984 67.2188 57.5677 67.2188 58.3906C67.2188 59.8542 66.4766 60.7708 64.9922 61.1406V61.1797C65.7839 61.2786 66.4089 61.5677 66.8672 62.0469C67.3255 62.5208 67.5547 63.1042 67.5547 63.7969C67.5547 64.8438 67.1719 65.6719 66.4062 66.2812C65.6406 66.8906 64.5833 67.1953 63.2344 67.1953C62.0781 67.1953 61.138 67.0078 60.4141 66.6328Z" fill="#2193ED"/>
</svg>
