<svg width="120" height="120" viewBox="0 0 120 120" fill="none" xmlns="http://www.w3.org/2000/svg">
<path d="M120 60C120 93.1371 93.1371 120 60 120C26.8629 120 0 93.1371 0 60C0 26.8629 26.8629 0 60 0C93.1371 0 120 26.8629 120 60ZM12 60C12 86.5097 33.4903 108 60 108C86.5097 108 108 86.5097 108 60C108 33.4903 86.5097 12 60 12C33.4903 12 12 33.4903 12 60Z" fill="#DDDDDD" fill-opacity="0.2"/>
<path d="M120 60C120 93.1371 93.1371 120 60 120C26.8629 120 0 93.1371 0 60C0 26.8629 26.8629 0 60 0C93.1371 0 120 26.8629 120 60ZM12 60C12 86.5097 33.4903 108 60 108C86.5097 108 108 86.5097 108 60C108 33.4903 86.5097 12 60 12C33.4903 12 12 33.4903 12 60Z" fill="#37DBA6"/>
<path d="M71.1834 52.0167C71.0285 51.8605 70.8441 51.7365 70.641 51.6519C70.4379 51.5672 70.2201 51.5237 70.0001 51.5237C69.7801 51.5237 69.5622 51.5672 69.3591 51.6519C69.156 51.7365 68.9717 51.8605 68.8167 52.0167L56.4001 64.45L51.1834 59.2167C51.0225 59.0613 50.8326 58.9391 50.6245 58.8571C50.4165 58.7751 50.1943 58.7349 49.9706 58.7387C49.747 58.7426 49.5263 58.7905 49.3212 58.8796C49.116 58.9688 48.9305 59.0975 48.7751 59.2583C48.6197 59.4192 48.4975 59.6091 48.4155 59.8172C48.3335 60.0253 48.2933 60.2475 48.2971 60.4711C48.301 60.6948 48.3489 60.9155 48.438 61.1206C48.5272 61.3257 48.6559 61.5113 48.8167 61.6667L55.2167 68.0667C55.3717 68.2229 55.556 68.3469 55.7591 68.4315C55.9622 68.5161 56.1801 68.5597 56.4001 68.5597C56.6201 68.5597 56.8379 68.5161 57.041 68.4315C57.2441 68.3469 57.4285 68.2229 57.5834 68.0667L71.1834 54.4667C71.3526 54.3106 71.4876 54.1212 71.5799 53.9104C71.6723 53.6995 71.72 53.4718 71.72 53.2417C71.72 53.0115 71.6723 52.7838 71.5799 52.573C71.4876 52.3622 71.3526 52.1727 71.1834 52.0167Z" fill="#37DBA6"/>
</svg>
