<svg width="120" height="120" viewBox="0 0 120 120" fill="none" xmlns="http://www.w3.org/2000/svg">
<path d="M120 60C120 93.1371 93.1371 120 60 120C26.8629 120 0 93.1371 0 60C0 26.8629 26.8629 0 60 0C93.1371 0 120 26.8629 120 60ZM12 60C12 86.5097 33.4903 108 60 108C86.5097 108 108 86.5097 108 60C108 33.4903 86.5097 12 60 12C33.4903 12 12 33.4903 12 60Z" fill="#DDDDDD" fill-opacity="0.2"/>
<path d="M60 0C67.8793 9.39599e-08 75.6815 1.55195 82.961 4.56723C90.2405 7.58251 96.8549 12.0021 102.426 17.5736C107.998 23.1451 112.417 29.7595 115.433 37.039C118.448 44.3185 120 52.1207 120 60C120 67.8793 118.448 75.6815 115.433 82.961C112.417 90.2406 107.998 96.8549 102.426 102.426C96.8549 107.998 90.2405 112.417 82.961 115.433C75.6814 118.448 67.8793 120 60 120L60 108C66.3034 108 72.5452 106.758 78.3688 104.346C84.1924 101.934 89.4839 98.3983 93.9411 93.9411C98.3983 89.4839 101.934 84.1924 104.346 78.3688C106.758 72.5452 108 66.3035 108 60C108 53.6966 106.758 47.4548 104.346 41.6312C101.934 35.8076 98.3983 30.5161 93.9411 26.0589C89.4839 21.6017 84.1924 18.066 78.3688 15.6538C72.5452 13.2416 66.3035 12 60 12V0Z" fill="#2193ED"/>
<path d="M54.8359 67.1953C52.1693 67.1953 50.8359 65.3229 50.8359 61.5781C50.8359 59.6354 51.1953 58.1562 51.9141 57.1406C52.638 56.1198 53.6849 55.6094 55.0547 55.6094C57.6589 55.6094 58.9609 57.513 58.9609 61.3203C58.9609 63.2161 58.6042 64.6693 57.8906 65.6797C57.1823 66.6901 56.1641 67.1953 54.8359 67.1953ZM54.9453 57.4922C53.8776 57.4922 53.3438 58.8333 53.3438 61.5156C53.3438 64.0417 53.8672 65.3047 54.9141 65.3047C55.9349 65.3047 56.4453 64.0026 56.4453 61.3984C56.4453 58.7943 55.9453 57.4922 54.9453 57.4922ZM62.8516 64.9531H67.6016V67H60.1484V66.1562C60.1484 65.5833 60.2448 65.0703 60.4375 64.6172C60.6302 64.1589 60.8724 63.75 61.1641 63.3906C61.4557 63.026 61.7734 62.7057 62.1172 62.4297C62.4661 62.1484 62.7969 61.8958 63.1094 61.6719C63.4375 61.4375 63.724 61.2135 63.9688 61C64.2188 60.7865 64.4271 60.5755 64.5938 60.3672C64.7656 60.1536 64.8932 59.9401 64.9766 59.7266C65.0599 59.5078 65.1016 59.276 65.1016 59.0312C65.1016 58.5521 64.9661 58.1901 64.6953 57.9453C64.4245 57.7005 64.0104 57.5781 63.4531 57.5781C62.4896 57.5781 61.5677 57.9609 60.6875 58.7266V56.5547C61.6615 55.9245 62.7604 55.6094 63.9844 55.6094C64.5521 55.6094 65.0599 55.6849 65.5078 55.8359C65.9609 55.9818 66.3438 56.1927 66.6562 56.4688C66.9688 56.7448 67.2057 57.0807 67.3672 57.4766C67.5339 57.8672 67.6172 58.3047 67.6172 58.7891C67.6172 59.3047 67.5365 59.763 67.375 60.1641C67.2188 60.5651 67.0078 60.9297 66.7422 61.2578C66.4818 61.5859 66.1797 61.888 65.8359 62.1641C65.4922 62.4349 65.1354 62.6979 64.7656 62.9531C64.5156 63.1302 64.2734 63.3073 64.0391 63.4844C63.8099 63.6562 63.6068 63.8281 63.4297 64C63.2526 64.1667 63.112 64.3307 63.0078 64.4922C62.9036 64.6536 62.8516 64.8073 62.8516 64.9531Z" fill="#2193ED"/>
</svg>
