<svg width="120" height="120" viewBox="0 0 120 120" fill="none" xmlns="http://www.w3.org/2000/svg">
<path d="M120 60C120 93.1371 93.1371 120 60 120C26.8629 120 0 93.1371 0 60C0 26.8629 26.8629 0 60 0C93.1371 0 120 26.8629 120 60ZM12 60C12 86.5097 33.4903 108 60 108C86.5097 108 108 86.5097 108 60C108 33.4903 86.5097 12 60 12C33.4903 12 12 33.4903 12 60Z" fill="#DDDDDD" fill-opacity="0.2"/>
<path d="M120 60C120 93.1371 93.1371 120 60 120C26.8629 120 0 93.1371 0 60C0 26.8629 26.8629 0 60 0C93.1371 0 120 26.8629 120 60ZM12 60C12 86.5097 33.4903 108 60 108C86.5097 108 108 86.5097 108 60C108 33.4903 86.5097 12 60 12C33.4903 12 12 33.4903 12 60Z" fill="#2193ED"/>
<path d="M54.8359 67.1953C52.1693 67.1953 50.8359 65.3229 50.8359 61.5781C50.8359 59.6354 51.1953 58.1562 51.9141 57.1406C52.638 56.1198 53.6849 55.6094 55.0547 55.6094C57.6589 55.6094 58.9609 57.513 58.9609 61.3203C58.9609 63.2161 58.6042 64.6693 57.8906 65.6797C57.1823 66.6901 56.1641 67.1953 54.8359 67.1953ZM54.9453 57.4922C53.8776 57.4922 53.3438 58.8333 53.3438 61.5156C53.3438 64.0417 53.8672 65.3047 54.9141 65.3047C55.9349 65.3047 56.4453 64.0026 56.4453 61.3984C56.4453 58.7943 55.9453 57.4922 54.9453 57.4922ZM66.9375 55.7969V62.8594H68.2812V64.7031H66.9375V67H64.6875V64.7031H59.8047V62.7734C60.237 62.2891 60.6849 61.7604 61.1484 61.1875C61.612 60.6094 62.0599 60.0156 62.4922 59.4062C62.9245 58.7969 63.3255 58.1849 63.6953 57.5703C64.0703 56.9505 64.388 56.3594 64.6484 55.7969H66.9375ZM62.0156 62.8594H64.6875V58.9453C64.5052 59.2839 64.3073 59.6276 64.0938 59.9766C63.8802 60.3203 63.6562 60.6615 63.4219 61C63.1875 61.3333 62.9505 61.6589 62.7109 61.9766C62.4714 62.2891 62.2396 62.5833 62.0156 62.8594Z" fill="#2193ED"/>
</svg>
